<?xml version="1.0" encoding="utf-8"?>
<!-- Generator: Adobe Illustrator 25.0.0, SVG Export Plug-In . SVG Version: 6.00 Build 0)  -->
<svg version="1.1" id="Flag" xmlns="http://www.w3.org/2000/svg" xmlns:xlink="http://www.w3.org/1999/xlink" x="0px" y="0px"
	 viewBox="0 0 1990 1050" style="enable-background:new 0 0 1990 1050;" xml:space="preserve">
<style type="text/css">
	.st0{fill:#00247D;}
	.st1{fill:#FFFFFF;}
	.st2{fill:#CE1124;}
	.st3{fill:#ED1C24;}
</style>
<g>
	<g>
		<g>
			<rect x="0.4" y="0.8" class="st0" width="1989.6" height="1049.2"/>
		</g>
		<g>
			<g>
				<g>
					<rect y="0" class="st1" width="999.3" height="534.2"/>
				</g>
				<g>
					<polygon class="st2" points="999.4,213.8 559.4,213.8 559.4,0.1 439.3,0.1 439.3,213.8 0.4,213.8 0.4,320.6 439.3,320.6 
						439.3,534.2 559.4,534.2 559.4,320.6 999.4,320.6 					"/>
				</g>
			</g>
			<g>
				<g>
					<polygon class="st0" points="0,62.3 0,178.6 218,178.6 					"/>
				</g>
				<g>
					<polygon class="st0" points="120.3,0 117.1,0.2 399.7,151.8 399.7,0 					"/>
				</g>
				<g>
					<polygon class="st2" points="335.4,177.8 0,0.1 0,42 255.5,177.8 					"/>
				</g>
				<g>
					<polygon class="st2" points="664.2,356.4 999.6,534.2 999.6,492.3 744.1,356.4 					"/>
				</g>
			</g>
			<g>
				<g>
					<polygon class="st0" points="0,472.9 0,356.6 218,356.6 					"/>
				</g>
				<g>
					<polygon class="st0" points="120.3,535.1 117.1,534.9 399.7,383.3 399.7,535.1 					"/>
				</g>
				<g>
					<polygon class="st2" points="333.7,356.4 0.2,534.1 78.2,534.1 400,363.6 400,356.4 					"/>
				</g>
			</g>
			<g>
				<g>
					<polygon class="st0" points="999.6,62.2 999.6,178.5 781.6,178.5 					"/>
				</g>
				<g>
					<polygon class="st0" points="879.3,0 882.5,0.1 599.9,151.7 599.9,0 					"/>
				</g>
				<g>
					<polygon class="st2" points="999.3,0.2 924.2,0.2 600.2,172 600.2,178 668.8,178 					"/>
				</g>
			</g>
			<g>
				<g>
					<polygon class="st0" points="999.6,472.8 999.6,356.5 781.6,356.5 					"/>
				</g>
				<g>
					<polygon class="st0" points="879.3,535 882.5,534.9 599.9,383.3 599.9,535 					"/>
				</g>
			</g>
		</g>
	</g>
	<g>
		<polygon class="st3" points="1266,371.7 1284.3,431.2 1343.4,431.2 1295.6,467.9 1313.8,527.3 1266,490.6 1218.1,527.3 
			1236.4,467.9 1188.5,431.2 1247.7,431.2 		"/>
		<path class="st1" d="M1323.3,541.1l-57.4-44l-57.4,44l21.9-71.2l-57.4-44h70.9l21.9-71.2l21.9,71.2h70.9l-57.4,44L1323.3,541.1z
			 M1266,484.1l38.4,29.5l-14.7-47.7l38.4-29.5h-47.5l-14.7-47.7l-14.7,47.7h-47.5l38.4,29.5l-14.7,47.7L1266,484.1z"/>
	</g>
	<g>
		<polygon class="st3" points="1497.2,127.5 1515.5,187 1574.7,187 1526.8,223.7 1545.1,283.1 1497.2,246.4 1449.3,283.1 
			1467.6,223.7 1419.7,187 1478.9,187 		"/>
		<path class="st1" d="M1554.6,296.9l-57.4-44l-57.4,44l21.9-71.2l-57.4-44h70.9l21.9-71.2l21.9,71.2h70.9l-57.4,44L1554.6,296.9z
			 M1497.2,239.9l38.4,29.5l-14.7-47.7l38.4-29.5h-47.5l-14.7-47.7l-14.7,47.7h-47.5l38.4,29.5l-14.7,47.7L1497.2,239.9z"/>
	</g>
	<g>
		<polygon class="st3" points="1694.4,306 1712.7,365.4 1771.8,365.4 1724,402.1 1742.2,461.6 1694.4,424.8 1646.5,461.6 
			1664.8,402.1 1616.9,365.4 1676.1,365.4 		"/>
		<path class="st1" d="M1751.7,475.4l-57.4-44l-57.4,44l21.9-71.2l-57.4-44h70.9l21.9-71.2l21.9,71.2h70.9l-57.4,44L1751.7,475.4z
			 M1694.4,418.3l38.4,29.5l-14.7-47.7l38.4-29.5H1709l-14.7-47.7l-14.7,47.7h-47.5l38.4,29.5l-14.7,47.7L1694.4,418.3z"/>
	</g>
	<g>
		<polygon class="st3" points="1497.1,753.6 1516.3,815.8 1578.2,815.8 1528.1,854.3 1547.2,916.5 1497.1,878 1447,916.5 
			1466.1,854.3 1416,815.8 1478,815.8 		"/>
		<path class="st1" d="M1556.7,930.3l-59.6-45.7l-59.6,45.7l22.8-74l-59.6-45.7h73.7l22.8-74l22.8,74h73.7l-59.6,45.7L1556.7,930.3z
			 M1497.1,871.5l40.6,31.2l-15.5-50.4l40.6-31.2h-50.2l-15.5-50.4l-15.5,50.4h-50.2l40.6,31.2l-15.5,50.4L1497.1,871.5z"/>
	</g>
</g>
</svg>
